<?xml version="1.0" encoding="utf-8"?>
<!-- Generator: Adobe Illustrator 23.0.0, SVG Export Plug-In . SVG Version: 6.00 Build 0)  -->
<svg version="1.1" id="Layer_1" xmlns="http://www.w3.org/2000/svg" xmlns:xlink="http://www.w3.org/1999/xlink" x="0px" y="0px"
	 viewBox="0 0 75 75" style="enable-background:new 0 0 75 75;" xml:space="preserve">
<style type="text/css">
	.st0{fill:#FFFFFF;}
</style>
<title>Group</title>
<desc>Created with Sketch.</desc>
<g>
	<g id="HD_05.02.00-Example-SingleSong" transform="translate(-537.000000, -574.000000)">
		<g id="Player" transform="translate(148.000000, 95.000000)">
			<g id="Bottom" transform="translate(0.000000, 285.000000)">
				<g transform="translate(24.000000, 15.000000)">
					<g id="Group">
						<path id="Shape" class="st0" d="M396.5,203h-4.3c-1.2,0-2.2,1-2.2,2.2v23.6c0,1.2,1,2.2,2.2,2.2h4.3c1.2,0,2.2-1,2.2-2.2
							v-23.6C398.7,204,397.7,203,396.5,203z"/>
						<path class="st0" d="M412.9,203h-4.3c-1.2,0-2.2,1-2.2,2.2v23.6c0,1.2,1,2.2,2.2,2.2h4.3c1.2,0,2.2-1,2.2-2.2v-23.6
							C415.1,204,414.1,203,412.9,203z"/>
					</g>
				</g>
			</g>
		</g>
	</g>
</g>
</svg>
