<svg style="position: absolute; width: 0; height: 0; overflow: hidden;" version="1.1" 
    xmlns="http://www.w3.org/2000/svg" 
    xmlns:xlink="http://www.w3.org/1999/xlink">
    <defs>
        <symbol id="icon-play" viewBox="0 0 29.86 29.89">
            <title>play</title>
            <path fill="#fff" fill-rule="evenodd" d="M29.73,17.79,3.87,30.73A2,2,0,0,1,1,28.94V3.06A2,2,0,0,1,3.87,1.27L29.73,14.21A2,2,0,0,1,29.73,17.79Z" transform="translate(-0.98 -1.06)"/>
        </symbol>
        <symbol id="icon-more" viewBox="0 0 6 28">
            <title>logo-symbol</title>
            <circle fill="#939598" class="cls-1" cx="3" cy="3" r="3"/><circle fill="#939598" class="cls-1" cx="3" cy="14" r="3"/><circle fill="#939598" class="cls-1" cx="3" cy="25" r="3"/>
        </symbol>
        <symbol id="icon-expland" viewBox="0 0 10.58 6">
            <title>icon-expland</title> 
            <polygon fill="#939598" class="cls-1" points="5.29 6 0 0.71 0.71 0 5.29 4.58 9.88 0 10.58 0.71 5.29 6"/>
        </symbol>
        <symbol id="logo-imuzik" viewBox="0 0 97.2 46.75">
            <title>logo-imuzik</title> 
            <path d="M87.82,35.29V34.14l1,.4-.2.75Zm0-6.49a50,50,0,0,0,4.63,5.34A6.66,6.66,0,0,0,97,35.81l.19-.16c-1.66-2-5.77-6.85-7.71-9.5V26c1.58-1.78,2.09-2.33,3.2-3.44.88-.32,3-1,3.52-1.31l.48-.75a26.21,26.21,0,0,0-4.55-.43l-.64,1.74c-1,1.3-2.41,3-3.68,4.43ZM42,34.66l0-.08,0,0v.12Zm45.86-8.39V28.8c-.31-.43-.63-.83-.91-1.26l0-.16c.27-.36.63-.72.94-1.11Zm0,7.87-1.46-.63c-.08-.71-.12-7.16-.12-10.49,0-4,0-8,.12-11.59a37.27,37.27,0,0,0-4.55,1l-.32.67,1.87.87c.11,3.6.11,7.64.11,11.87,0,4.95,0,7-.11,7.68l-1.91,1-.2.71c1.19,0,2.34,0,3.53,0,1,0,2.06,0,3,0V34.14ZM42,21.56v-.08l.32-.63a24.24,24.24,0,0,1,4.59-.52c-.16,1.51-.24,4.16-.24,9.82a4,4,0,0,0,.59,2.45,3.25,3.25,0,0,0,2.46,1,4.47,4.47,0,0,0,3.64-1.94V22.82c-.2-.51-.68-.75-2.3-1.34l.32-.67a25.2,25.2,0,0,1,4.9-.48c-.07,1.59-.07,3.72-.07,12.39a4,4,0,0,0,2.61,1.9l-.2.59a4.22,4.22,0,0,1-1.94.44,3,3,0,0,1-3.2-2.53h-.08a6.78,6.78,0,0,1-4.91,2.61,4.9,4.9,0,0,1-3.33-1.27,5.49,5.49,0,0,1-1.34-4.15c0-2.22.08-5.58.08-8L42,21.56Zm29.8-1H62.62l-2.38-.28-.08.12a29,29,0,0,0,.2,4.43l.48-.15c.43-.52,1.3-2.06,1.7-2.73,3.72-.2,5.14-.2,5.66-.2l0,.08c-3,4.55-6.14,9.42-8.79,13.22l0,.23h5.34c3,0,5.23.16,6.93.2a39.85,39.85,0,0,0,.79-4.87L72,30.7c-.48.55-1.27,1.62-2.3,3.09a56.67,56.67,0,0,1-6.13.27V34c2-3.17,6.72-10.29,8.38-13.14l-.19-.32Zm5.42-7.36a6.17,6.17,0,0,0-1.82,1.9l-.08.28a5.28,5.28,0,0,0,1.66,1.9l.28,0A6.14,6.14,0,0,0,79,15.27L79,15a4.27,4.27,0,0,0-1.66-1.9l-.2,0Zm-3.13,8.55,1.82.87v4.23c0,2.65,0,5.54-.07,6.69l-1.94,1-.2.75c1.3,0,2.41,0,3.48,0,1.31,0,2.57,0,3.76,0l.24-.75-2.38-1c0-.91-.08-2.89-.08-6.65V20.1a25.74,25.74,0,0,0-4.47.95Zm-56.51,5c0,3.21,0,6.14-.08,6.81l-1.82,1-.24.79c1.07,0,2.34,0,3.41,0,1.34,0,2.61,0,3.44,0l.2-.79-2-1c-.08-1-.08-5.62-.08-9.58a6.29,6.29,0,0,1,3.56-1.82c2.77,0,3.25,2.1,3.25,3.8,0,3,0,5.58-.08,7.6l-1.62,1-.2.79c1.11,0,2.22,0,3.28,0s2.22,0,3.17,0l.24-.75-2-1V26.79a22.6,22.6,0,0,0-.2-2.82,6.1,6.1,0,0,1,3.84-1.86c2.69,0,3.12,2.22,3.12,4.12.05,3.8,0,6.09-.11,7.28l-1.47,1-.19.75c1.1,0,2.21,0,3.24,0,1.23,0,2.49,0,3.64,0l.12-.63v-.12l-1.74-.75c-.4-.2-.64-.36-.64-.67v-8c0-2.93-1.74-5-4.54-5-1.63,0-3.21.79-5.55,2.72a4.19,4.19,0,0,0-4-2.72c-1.51,0-3.17,1-5.23,2.72H20.2l.15-2.72A18.65,18.65,0,0,0,16,21.32l-.24.68,1.78.75v4ZM42,21.48v0Z"/>
            <path d="M22.52,38.56v6.26h-.61v-5.7l-2.29,5.7h-.55l-2.36-5.7v5.7H16.1V38.56h1L19.38,44l2.24-5.42Z"/>
            <path d="M27.93,42.34a2.92,2.92,0,0,1-.52,1.79,1.87,1.87,0,0,1-1.62.79,1.9,1.9,0,0,1-1.63-.79,3.4,3.4,0,0,1,0-3.58,2.06,2.06,0,0,1,3.25,0A2.89,2.89,0,0,1,27.93,42.34Zm-.62,0a2.67,2.67,0,0,0-.34-1.4,1.3,1.3,0,0,0-1.18-.7,1.28,1.28,0,0,0-.92.38,1.84,1.84,0,0,0-.49.88,3.16,3.16,0,0,0-.11.84,2.76,2.76,0,0,0,.34,1.4,1.28,1.28,0,0,0,1.18.7c.71,0,1.18-.42,1.42-1.25A3.25,3.25,0,0,0,27.31,42.34Z"/>
            <path d="M25.48,38h.73l.84,1.29h-.4l-.8-.9-.8.9h-.41Zm.73,7.52v.75h-.73V45.5Z"/>
            <path d="M29.93,43.76q0,.69.6.69a1.51,1.51,0,0,0,.51-.11v.46a1.56,1.56,0,0,1-.68.12.9.9,0,0,1-.84-.39,2,2,0,0,1-.17-1V40.36h-.89v-.49h.89V38.76l.57-.2v1.31h1v.49h-1Z"/>
            <path d="M35.15,43.76q0,.69.6.69a1.51,1.51,0,0,0,.5-.11l0,.46a1.56,1.56,0,0,1-.68.12.89.89,0,0,1-.84-.39,2,2,0,0,1-.17-1V40.36h-.89v-.49h.89V38.76l.57-.2v1.31h1v.49h-1Z"/>
            <path d="M40.2,44.82V41.66a1.81,1.81,0,0,0-.24-1,.94.94,0,0,0-.83-.46,1.25,1.25,0,0,0-1.28,1.06,2.61,2.61,0,0,0-.1.75v2.78h-.57V38.1h.57v2.63a1.45,1.45,0,0,1,1.47-1c1,0,1.55.64,1.55,1.93v3.13Z"/>
            <path d="M42.83,42.5V42H45c0-1.18-.42-1.78-1.15-1.78a1.23,1.23,0,0,0-1.05.59A2.06,2.06,0,0,0,42.44,42v.48a2.29,2.29,0,0,0,.36,1.33,1.36,1.36,0,0,0,1.2.61,2.15,2.15,0,0,0,.7-.16,1.43,1.43,0,0,0,.56-.38l.27.38a2.38,2.38,0,0,1-.75.44,2.41,2.41,0,0,1-.87.2q-2.07,0-2.07-2.58a3.3,3.3,0,0,1,.44-1.71,1.73,1.73,0,0,1,2.95-.09,3,3,0,0,1,.37,1.74v.22Z"/>
            <path d="M43.42,38h.71L45,39.27h-.4l-.79-.9-.81.9h-.4Zm1.78.58,1.18-1.33h-.73l-.88,1.33Z"/>
            <path d="M52.24,43.87a1.49,1.49,0,0,1-1.4,1A1.8,1.8,0,0,1,49,43.36a3.64,3.64,0,0,1-.14-1c0-1.72.65-2.58,1.94-2.58a2,2,0,0,1,.8.14,1.86,1.86,0,0,1,.61.51v-.54h.56v4.58a2.44,2.44,0,0,1-.52,1.65,1.91,1.91,0,0,1-1.57.65,3.64,3.64,0,0,1-1.45-.27l.05-.56a1.4,1.4,0,0,0,.66.26,3.87,3.87,0,0,0,.73.09A1.34,1.34,0,0,0,52,45.63a2.9,2.9,0,0,0,.28-1.45Zm0-1.53c0-1.4-.47-2.1-1.42-2.1-.63,0-1,.41-1.22,1.23a4,4,0,0,0-.09.87,2.83,2.83,0,0,0,.27,1.31,1.1,1.1,0,0,0,1,.69c.67,0,1.1-.4,1.31-1.19A3,3,0,0,0,52.24,42.34Z"/>
            <path d="M54.15,37.9h.56v.76h-.56Zm0,6.92v-5h.56v5Z"/>
            <path d="M60.06,42.34a2.92,2.92,0,0,1-.52,1.79,1.86,1.86,0,0,1-1.61.79,1.9,1.9,0,0,1-1.63-.79,3.4,3.4,0,0,1,0-3.58,2.05,2.05,0,0,1,3.33.13l.28-.47v-.76h.41V40l-.56,1A3.23,3.23,0,0,1,60.06,42.34Zm-.61,0a2.76,2.76,0,0,0-.34-1.4,1.32,1.32,0,0,0-1.18-.7,1.3,1.3,0,0,0-.93.38,1.93,1.93,0,0,0-.49.88,3.16,3.16,0,0,0-.11.84,2.76,2.76,0,0,0,.34,1.4,1.29,1.29,0,0,0,1.19.7c.71,0,1.18-.42,1.41-1.25A3.24,3.24,0,0,0,59.45,42.34Z"/>
            <path d="M57.77,39.26l.88-1.33h.73L58.2,39.27Z"/>
            <path d="M61.13,37.9h.56v.76h-.56Zm0,6.92v-5h.56v5Z"/>
            <path d="M67.49,42.31c-1.24,0-1.86.41-1.86,1.16a.85.85,0,0,0,1,1,1.18,1.18,0,0,0,1-.48,1.86,1.86,0,0,0,.31-1.12V41.4c0-.77-.36-1.16-1.06-1.16a2.34,2.34,0,0,0-1.33.39l-.17-.38A2.86,2.86,0,0,1,66,40a2.65,2.65,0,0,1,1-.21,1.42,1.42,0,0,1,1.59,1.63V44.6a.74.74,0,0,1,0,.21H68v-.73a1.67,1.67,0,0,1-1.49.84,1.49,1.49,0,0,1-1.08-.39,1.45,1.45,0,0,1-.4-1.07c0-1.1.8-1.64,2.42-1.64,0,0,.07.08.07.25v.16A.17.17,0,0,1,67.49,42.31Z"/>
            <path d="M66.33,38H67l.84,1.29h-.4l-.8-.9-.8.9h-.4Z"/>
            <path d="M75.39,44.82V41.66a2.15,2.15,0,0,0-.19-.94.82.82,0,0,0-.76-.49,1.09,1.09,0,0,0-1,.61,2.42,2.42,0,0,0-.26,1.2v2.78h-.57V41.66a2,2,0,0,0-.2-.94.82.82,0,0,0-.77-.49,1.07,1.07,0,0,0-1,.61,2.42,2.42,0,0,0-.27,1.2v2.78h-.56v-5h.51v.86a1.45,1.45,0,0,1,1.47-1,1.2,1.2,0,0,1,.81.27,1.07,1.07,0,0,1,.4.74,1.45,1.45,0,0,1,1.48-1c1,0,1.47.64,1.47,1.93v3.13Z"/>
            <path d="M82.54,44.82V41.66a1.81,1.81,0,0,0-.24-1,.92.92,0,0,0-.83-.46,1.27,1.27,0,0,0-1.28,1.06,3,3,0,0,0-.1.75v2.78h-.56v-5H80v.86a1.5,1.5,0,0,1,1.52-1c1,0,1.55.64,1.55,1.93v3.13Z"/>
            <path d="M87.53,44.82V41.66a1.81,1.81,0,0,0-.24-1,.94.94,0,0,0-.84-.46,1.25,1.25,0,0,0-1.27,1.06,2.61,2.61,0,0,0-.1.75v2.78h-.57V38.1h.57v2.63a1.44,1.44,0,0,1,1.46-1c1,0,1.55.64,1.55,1.93v3.13Z"/>
            <path d="M91.64,42.31c-1.24,0-1.86.41-1.86,1.16a.85.85,0,0,0,1,1,1.16,1.16,0,0,0,1-.48,1.8,1.8,0,0,0,.31-1.12V41.4c0-.77-.35-1.16-1.06-1.16a2.28,2.28,0,0,0-1.32.39l-.18-.38A3.5,3.5,0,0,1,90.1,40a2.69,2.69,0,0,1,1-.21,1.42,1.42,0,0,1,1.59,1.63V44.6a.74.74,0,0,1,0,.21h-.51v-.73a1.67,1.67,0,0,1-1.49.84,1.36,1.36,0,0,1-1.48-1.46c0-1.1.81-1.64,2.42-1.64,0,0,.07.08.07.25v.16S91.65,42.31,91.64,42.31Z"/>
            <path d="M91.19,45.5v.75h-.73V45.5Z"/>
            <path d="M97,44.58a1.67,1.67,0,0,1-1.14.34,2,2,0,0,1-1.68-.78,2.84,2.84,0,0,1-.54-1.8,2.73,2.73,0,0,1,.58-1.81,2.08,2.08,0,0,1,1.7-.77A3,3,0,0,1,97,40l0,.53a2.11,2.11,0,0,0-1-.26,1.56,1.56,0,0,0-1.32.63,2.33,2.33,0,0,0-.43,1.44,2.47,2.47,0,0,0,.42,1.46,1.56,1.56,0,0,0,2.16.4.44.44,0,0,0,.12-.1Z"/>
            <polygon fill="#fdcc25" points="2.81 19.04 11.96 18.49 9.23 32.44 12.23 44.82 2.1 44.82 4.59 28.93 2.81 19.04"/>
            <path fill="#fdcc25" d="M4.5,10.36a5.17,5.17,0,0,1-.08-3.74,3.75,3.75,0,0,1,4.5-2.21A2.83,2.83,0,0,1,10.53,6a3.21,3.21,0,0,1,0,2.29A1.31,1.31,0,0,1,9,9.11a1.12,1.12,0,0,1-.6-1.53v0a.88.88,0,0,0,0-.64A.57.57,0,0,0,8,6.54H7.92a.16.16,0,0,0-.13,0H7.6a1.17,1.17,0,0,0-.89.68c0,.08,0,.12,0,.2a2.89,2.89,0,0,0,0,2.09A2.27,2.27,0,0,0,8,10.8a2.85,2.85,0,0,0,1.4.2,3.55,3.55,0,0,0,2.74-2.09c0-.12.08-.2.12-.32a5.11,5.11,0,0,0,0-3.54A4.22,4.22,0,0,0,9.93,2.72L9.64,2.6h0a5.12,5.12,0,0,0-1-.24,10,10,0,0,0-1.09,0A5.88,5.88,0,0,0,2.93,5.86c0,.16-.12.32-.16.48a6.88,6.88,0,0,0,.08,5,6.15,6.15,0,0,0,3.26,3.34l.4.12h0l0,0A9.17,9.17,0,0,0,8,15.14a6.89,6.89,0,0,0,1.57,0,8.1,8.1,0,0,0,6.35-4.86,1.15,1.15,0,1,1,2.13.88,10.45,10.45,0,0,1-8.2,6.31,11.82,11.82,0,0,1-2.06,0,8.51,8.51,0,0,1-2-.44.12.12,0,0,1-.08,0h0a4,4,0,0,1-.53-.2,8.25,8.25,0,0,1-4.5-4.58A9.24,9.24,0,0,1,.56,5.57,1.89,1.89,0,0,1,.8,5,8.09,8.09,0,0,1,7.19.07,7.18,7.18,0,0,1,8.8,0a6.56,6.56,0,0,1,1.53.36h.08l.4.16a6.55,6.55,0,0,1,3.58,3.62,7.2,7.2,0,0,1,.08,5.18,2.45,2.45,0,0,1-.2.48,5.79,5.79,0,0,1-4.54,3.5,5.72,5.72,0,0,1-1.17,0,.51.51,0,0,1-.24,0,3.83,3.83,0,0,1-1-.24A5.59,5.59,0,0,1,4.5,10.36Z"/>
        </symbol>

    </defs>
</svg>

